<svg class="icon"
  style="width: 6em; height: 6em;vertical-align: middle;fill: currentColor;overflow: hidden;"
  viewBox="0 0 1024 1024"
  version="1.1" xmlns="http://www.w3.org/2000/svg">
  <path
    fill="#3393ff"
    d="M512 0C229.218 0 0 229.218 0 512s229.218 512 512 512 512-229.218 512-512S794.782
    0 512 0zM512 944c-238.594 0-432-193.406-432-432S273.406 80 512 80s432 193.406 432 432S750.594
    944 512 944zM704 256c-35.25 0-64 28.688-64 64 0 23.876 13.282 44.5 32.75 55.5L612
    576.376c-1.312-0.094-2.624-0.376-4-0.376-10.782 0-20.812 2.938-29.75 7.718l-71.562-78.344C510.062
    497.562 512 489 512 480c0-35.312-28.688-64-64-64s-64 28.688-64 64c0 17.344 7 33.032 18.218
    44.562l-67.718 117.218C329.812 640.75 325 640 320 640c-35.312 0-64 28.75-64 64s28.688 64 64
    64 64-28.75 64-64c0-18.75-8.25-35.5-21.188-47.25l66.876-115.75c5.812 1.75 11.938 3 18.312 3
    14.532 0 27.782-5.062 38.532-13.25l67.906 74.406C547.876 615.218 544 627.124 544 640c0 35.25
    28.718 64 64 64 35.25 0 64-28.75 64-64 0-22.624-11.812-42.376-29.562-53.75l61.124-202.312c0.156
    0 0.25 0.062 0.438 0.062 35.25 0 64-28.688 64-64S739.25 256 704 256zM320 736c-17.688
    0-32-14.282-32-32s14.312-32 32-32 32 14.282 32 32S337.688 736 320 736zM448 512c-17.688
    0-32-14.312-32-32s14.312-32 32-32 32 14.312 32 32S465.688 512 448 512zM608 672c-17.718
    0-32-14.282-32-32s14.282-32 32-32 32 14.282 32 32S625.718 672 608 672zM704 352c-17.718
    0-32-14.312-32-32s14.282-32 32-32 32 14.312 32 32S721.718 352 704 352z"
  />
  <animateTransform 
    attributeType="xml" 
    attributeName="transform" 
    type="rotate" 
    from="0 0 0" 
    to="360 0 0" 
    dur="0.8s" 
    repeatCount="indefinite" 
  /> 
</svg>